# xmcd
#
# Track frame offsets: 
#        150
#        8707
#        20451
#        30696
#        41968
#        52307
#        63392
#        75037
#
# Disc length: 1124 seconds
#
# Revision: 0
# Processed by: cddbd v1.5.2PL0 Copyright (c) Steve Scherf et al.
# Submitted via: ExactAudioCopy v0.95b4
#
DISCID=5d046208
DTITLE=Various Artist - Best of
DYEAR=1978
DGENRE=Classic Country
TTITLE0=Sandy Posey - Born a Woman
TTITLE1=Sandy Posey - Single Girl
TTITLE2=Sandy Posey - What a Woman in Love Won't Do
TTITLE3=Sandy Posey - I Take It Back
TTITLE4=Skeeter Davis - My Last Date With You
TTITLE5=Skeeter Davis - He Says the Same Things to Me
TTITLE6=Skeeter Davis - I Can't Help It (I'm Falling Too)
TTITLE7=Skeeter Davis - I Can't Stay Mad at You
EXTD=
EXTT0=
EXTT1=
EXTT2=
EXTT3=
EXTT4=
EXTT5=
EXTT6=
EXTT7=
PLAYORDER=
